# xmcd
#
# Track frame offsets:
#	150
#	20824
#	42876
#	62023
#	95781
#	114176
#	136684
#	159595
#	182097
#	201433
#	225039
#
# Disc length: 3363 seconds
# Revision: 0
# Processed by: cddbd v1.5.2PL0 Copyright (c) Steve Scherf et al.
# Submitted via: dBpowerAMP V12.0
#
DISCID=8a0d210b
DTITLE=Coldwater Independence - Goodbye Sweet Chariot
DYEAR=1998
DGENRE=Country
TTITLE0=Two Hearts
TTITLE1=Jack's Song
TTITLE2=Shotgun
TTITLE3=For You
TTITLE4=Blood On Blood
TTITLE5=Gray
TTITLE6=Rolling Rock
TTITLE7=Driver
TTITLE8=Falling Star
TTITLE9=Ghosts
TTITLE10=Cryin' Shame
EXTD=
EXTT0=
EXTT1=
EXTT2=
EXTT3=
EXTT4=
EXTT5=
EXTT6=
EXTT7=
EXTT8=
EXTT9=
EXTT10=
PLAYORDER=
